{"title":"Howard the Duck {720p}{Dolby Prologic II Enhanced AAC}{PcTechPau","uid":9347005,"size":1335087237,"categoryP":"video","categoryS":"hd___movies","magnet":"?xt=urn:btih:665609e6203fd80bc6e5268142bde2b9aa296ee4&amp;dn=Howard+the+Duck+%7B720p%7D%7BDolby+Prologic+II+Enhanced+AAC%7D%7BPcTechPau&amp;tr=udp%3A%2F%2Ftracker.openbittorrent.com%3A80&amp;tr=udp%3A%2F%2Fopen.demonii.com%3A1337&amp;tr=udp%3A%2F%2Ftracker.coppersurfer.tk%3A6969&amp;tr=udp%3A%2F%2Fexodus.desync.com%3A6969","seeders":0,"leechers":1,"uploader":"PCTECHPAUL","files":8,"time":1387055434,"description":"*****************************************************************\nHoward the Duck (1986)\n*****************************************************************\nEncoded By PcTechPaul\n\n-------------------------------------------------------------------------------\nGeneral Information\n-------------------------------------------------------------------------------\nType.................: Movie\nPlatform.............: Video\nMore Info............:\n\nVideo Format.........: mp4\nVideo Bitrate........: 1280\nResolution...........: 720p\nColor................: 8 bit\nFPS..................: 23.976\nSource...............: Bluray\nOriginal Format......: NTSC\nGenre................: Crime | Drama | Mystery\nIMDb Rating..........: 4.4\nMovie Information....: http://www.imdb.com/title/tt0091225/\n\n-------------------------------------------------------------------------------\nRelease Notes\n-------------------------------------------------------------------------------\nComplete name : M:Howard the Duckhowardtheduck.mp4\nFormat : MPEG-4\nFormat profile : Base Media / Version 2\nCodec ID : mp42\nFile size : 1.23 GiB\nDuration : 1h 50mn\nOverall bit rate mode : Variable\nOverall bit rate : 1600 Kbps\n\nVideo\nID : 1\nFormat : AVC\nFormat/Info : Advanced Video Codec\nFormat profile : &lt;a class=&quot;__cf_email__&quot; href=&quot;/cdn-cgi/l/email-protection&quot; data-cfemail=&quot;da92b3bdb29a96eef4ea&quot;&gt;[email&amp;#160;protected]&lt;/a&gt;&lt;script data-cfhash='f9e31' type=&quot;text/javascript&quot;&gt;\n/* &lt;![CDATA[ */!function(){try{var t=&quot;currentScript&quot;in document?document.currentScript:function(){for(var t=document.getElementsByTagName(&quot;script&quot;),e=t.length;e--;)if(t[e].getAttribute(&quot;data-cfhash&quot;))return t[e]}();if(t&amp;&amp;t.previousSibling){var e,r,n,i,c=t.previousSibling,a=c.getAttribute(&quot;data-cfemail&quot;);if(a){for(e=&quot;&quot;,r=parseInt(a.substr(0,2),16),n=2;a.length-n;n+=2)i=parseInt(a.substr(n,2),16)^r,e+=String.fromCharCode(i);e=document.createTextNode(e),c.parentNode.replaceChild(e,c)}t.parentNode.removeChild(t);}}catch(u){}}()/* ]]&gt; */&lt;/script&gt;\nFormat settings, CABAC : Yes\nFormat settings, ReFrames : 8 frames\nCodec ID : avc1\nCodec ID/Info : Advanced Video Coding\nDuration : 1h 50mn\nBit rate mode : Variable\nBit rate : 1280 Kbps\nWidth : 1280 pixels\nHeight : 688 pixels\nDisplay aspect ratio : 1.85:1\nFrame rate mode : Variable\nFrame rate : 23.976 fps\nMinimum frame rate : 23.974 fps\nMaximum frame rate : 90 000.000 fps\nColor space : YUV\nChroma subsampling : 4:2:0\nBit depth : 8 bits\nScan type : Progressive\nBits/(Pixel*Frame) : 0.061\nStream size : 1 011 MiB (80%)\nWriting library : x264 core 130 r2273 b3065e6\nEncoding settings : cabac=1 / ref=8 / deblock=1:0:0 / analyse=0x3:0x113 / me=hex / subme=7 / psy=1 / psy_rd=1.20:0.20 / mixed_ref=1 / me_range=16 / chroma_me=1 / trellis=1 / 8x8dct=1 / cqm=0 / deadzone=21,11 / fast_pskip=1 / chroma_qp_offset=-3 / threads=12 / lookahead_threads=2 / sliced_threads=0 / nr=0 / decimate=1 / interlaced=0 / bluray_compat=0 / constrained_intra=0 / bframes=8 / b_pyramid=2 / b_adapt=1 / b_bias=0 / direct=1 / weightb=1 / open_gop=0 / weightp=2 / keyint=240 / keyint_min=24 / scenecut=40 / intra_refresh=0 / rc_lookahead=40 / rc=2pass / mbtree=1 / bitrate=1280 / ratetol=1.0 / qcomp=0.60 / qpmin=0 / qpmax=69 / qpstep=4 / cplxblur=20.0 / qblur=0.5 / ip_ratio=1.40 / aq=1:1.00\n\nColor primaries : BT.709\nTransfer characteristics : BT.709\nMatrix coefficients : BT.709\n\nAudio\nID : 2\nFormat : AAC\nFormat/Info : Advanced Audio Codec\nFormat profile : LC\nCodec ID : 40\nDuration : 1h 50mn\nBit rate mode : Variable\nBit rate : 315 Kbps\nMaximum bit rate : 400 Kbps\nChannel(s) : 2 channels\nChannel positions : Front: L R\nSampling rate : 48.0 KHz\nCompression mode : Lossy\nDelay relative to video : 83ms\nStream size : 249 MiB (20%)\nLanguage : English ","torrent":{"xt":"urn:btih:665609e6203fd80bc6e5268142bde2b9aa296ee4","amp;dn":"Howard+the+Duck+%7B720p%7D%7BDolby+Prologic+II+Enhanced+AAC%7D%7BPcTechPau","amp;tr":["udp%3A%2F%2Ftracker.openbittorrent.com%3A80","udp%3A%2F%2Fopen.demonii.com%3A1337","udp%3A%2F%2Ftracker.coppersurfer.tk%3A6969","udp%3A%2F%2Fexodus.desync.com%3A6969"],"infoHash":"665609e6203fd80bc6e5268142bde2b9aa296ee4","infoHashBuffer":{"type":"Buffer","data":[102,86,9,230,32,63,216,11,198,229,38,129,66,189,226,185,170,41,110,228]},"announce":[],"urlList":[]}}